<?xml version="1.0" standalone="no"?>
<!DOCTYPE svg PUBLIC "-//W3C//DTD SVG 20010904//EN"
 "http://www.w3.org/TR/2001/REC-SVG-20010904/DTD/svg10.dtd">
<svg version="1.0" xmlns="http://www.w3.org/2000/svg"
 width="512.000000pt" height="512.000000pt" viewBox="0 0 512.000000 512.000000"
 preserveAspectRatio="xMidYMid meet">
<metadata>
Created by potrace 1.14, written by Peter Selinger 2001-2017
</metadata>
<g transform="translate(0.000000,512.000000) scale(0.100000,-0.100000)"
fill="#000000" stroke="none">
<path d="M146 4899 c-55 -13 -105 -54 -127 -105 -19 -41 -19 -105 -17 -2246
l3 -2204 28 -42 c35 -53 95 -85 162 -85 57 0 97 18 137 60 62 65 58 -109 58
2283 0 1949 -2 2185 -16 2218 -39 95 -132 143 -228 121z"/>
<path d="M609 4281 l-29 -29 0 -1282 0 -1282 29 -29 29 -29 567 0 c387 0 573
3 587 11 49 26 48 -11 48 1329 0 1362 2 1308 -55 1330 -16 6 -240 10 -586 10
l-561 0 -29 -29z"/>
<path d="M2113 4286 l-28 -24 0 -1292 0 -1292 28 -24 28 -24 1368 0 1368 0 27
26 26 27 0 1287 0 1287 -26 27 -27 26 -1368 0 -1368 0 -28 -24z m254 -118 c30
-34 63 -145 63 -210 0 -20 -1 -20 -19 -4 -11 10 -47 26 -80 36 -33 11 -74 26
-91 35 -34 17 -49 59 -31 84 6 9 14 23 17 31 7 20 62 48 95 49 15 1 34 -9 46
-21z m2384 5 c24 -12 41 -29 48 -49 26 -71 4 -98 -100 -129 -35 -10 -76 -27
-90 -36 l-26 -18 9 62 c22 168 65 213 159 170z m-1987 -493 c-22 -103 -44
-361 -44 -515 0 -79 -3 -157 -6 -174 -6 -28 -10 -31 -46 -31 l-39 0 3 293 3
292 33 69 c27 57 97 145 107 134 2 -2 -3 -32 -11 -68z m1200 -20 c79 -13 167
-55 295 -143 131 -91 139 -94 151 -62 11 29 35 33 49 7 7 -14 6 -25 -6 -42
-23 -33 -69 -21 -159 40 -96 65 -104 68 -104 39 -1 -23 -2 -23 -30 9 -34 36
-45 39 -55 15 -5 -15 -9 -12 -20 14 -13 31 -66 69 -79 56 -3 -4 -6 -16 -6 -29
0 -12 -9 -32 -20 -45 l-19 -24 -1 32 c0 38 -34 80 -73 89 -24 5 -29 2 -38 -24
-10 -28 -12 -29 -39 -19 -65 25 -118 -67 -71 -124 19 -24 20 -24 49 -6 17 9
37 17 46 17 13 0 14 -4 5 -24 -13 -28 -4 -76 13 -76 6 0 20 7 30 17 16 14 18
14 18 0 0 -8 12 -25 28 -37 29 -24 21 -24 297 -4 80 6 95 4 132 -15 90 -45 98
-119 23 -204 l-31 -35 33 -62 c45 -86 43 -155 -5 -307 -48 -148 -54 -198 -29
-243 10 -19 33 -42 50 -51 l31 -16 -39 -38 c-49 -48 -56 -75 -34 -136 10 -27
15 -51 12 -54 -3 -3 -18 0 -32 7 -22 9 -32 9 -47 0 -15 -10 -23 -10 -38 0 -15
9 -26 9 -47 -1 -24 -11 -30 -10 -40 4 -9 12 -19 15 -36 9 -20 -6 -21 -5 -10 8
7 9 34 21 60 28 73 20 82 32 82 110 0 81 -12 99 -108 167 -37 26 -94 70 -127
97 -136 112 -192 113 -433 11 -71 -30 -132 -55 -134 -55 -3 0 6 32 19 71 24
71 28 159 8 160 -5 0 -13 -21 -17 -47 -11 -75 -36 -144 -79 -215 -21 -36 -39
-77 -39 -92 0 -25 33 -67 53 -67 17 0 -16 -31 -55 -51 -34 -17 -37 -22 -32
-49 4 -16 3 -41 0 -55 -6 -23 -12 -26 -49 -26 -63 0 -115 0 -132 0 -8 0 -27 0
-42 0 -16 0 -40 0 -55 1 -32 0 -37 20 -12 44 10 11 34 16 70 16 85 0 134 34
134 91 0 13 -12 61 -27 108 -22 70 -26 103 -25 174 2 67 -1 88 -10 85 -17 -6
-26 -42 -27 -111 -1 -56 -2 -58 -23 -51 -106 33 -187 165 -173 279 11 90 84
199 177 266 l27 20 -16 -45 c-19 -52 -14 -64 22 -48 24 11 25 10 25 -23 0 -28
4 -35 19 -35 11 0 27 10 36 23 l15 22 6 -22 c8 -28 24 -29 50 -4 19 18 19 18
41 -1 l22 -20 19 32 20 32 7 -31 c9 -42 20 -46 60 -21 30 19 40 20 67 11 53
-19 68 -15 68 19 0 24 4 30 23 30 12 0 29 4 37 10 12 8 12 11 -2 27 -16 17 -9
18 200 15 220 -4 368 8 427 33 41 18 83 60 91 92 10 37 -13 72 -60 96 -37 20
-44 20 -135 7 -179 -24 -255 -25 -338 0 -47 14 -88 20 -109 17 -35 -6 -35 -6
-33 31 2 23 -6 50 -19 72 -32 51 -30 119 4 159 33 40 56 52 124 67 70 16 74
16 144 4z m-546 -55 c17 -14 35 -25 41 -25 6 0 17 11 23 25 14 31 19 31 55 1
15 -12 35 -25 43 -28 20 -7 -44 -35 -100 -44 -30 -5 -44 -13 -48 -26 -5 -20
-23 -21 -79 -3 -19 6 -23 4 -23 -14 0 -26 -1 -26 -50 -1 -65 33 -110 23 -110
-25 0 -42 52 -61 84 -30 13 13 22 13 61 3 36 -10 50 -10 65 0 11 7 40 12 64
12 48 0 65 12 47 34 -9 11 -5 15 19 19 16 4 48 15 70 26 41 19 53 18 24 -3
-14 -11 -14 -17 1 -69 9 -31 15 -78 13 -104 l-3 -48 -47 48 c-25 26 -51 47
-57 47 -6 0 -11 -15 -11 -32 l0 -33 -20 25 c-20 24 -21 25 -35 6 -8 -11 -15
-24 -15 -30 0 -5 -11 1 -25 14 l-25 23 -13 -33 c-9 -19 -17 -28 -21 -21 -10
15 -43 14 -49 -1 -3 -10 -7 -10 -20 1 -9 7 -24 10 -33 7 -15 -6 -14 -9 6 -31
28 -30 60 -41 70 -25 6 9 13 9 28 1 30 -16 39 -14 45 9 4 17 11 19 31 14 19
-4 28 -2 32 10 5 14 9 13 32 -5 27 -20 27 -20 43 0 16 19 16 19 48 -9 19 -18
31 -38 31 -55 0 -25 -1 -25 -27 -10 -16 8 -36 21 -46 28 -15 10 -20 9 -31 -6
-12 -15 -15 -15 -26 -2 -16 19 -39 19 -46 0 -5 -12 -9 -13 -21 -4 -10 9 -17 9
-25 1 -9 -9 -6 -18 12 -37 26 -28 60 -33 60 -10 0 12 4 13 26 3 20 -9 27 -9
33 1 13 20 69 -18 73 -51 5 -31 -10 -36 -58 -18 -21 8 -31 7 -43 -4 -15 -14
-21 -13 -55 10 -35 24 -39 25 -55 10 -16 -15 -19 -15 -31 -1 -16 20 -44 19
-61 -1 -12 -14 -14 -14 -21 5 -8 24 -38 29 -38 6 0 -23 22 -65 34 -65 7 0 22
7 34 16 22 15 25 15 46 -5 27 -25 42 -27 54 -5 8 15 13 14 51 -7 39 -22 43
-23 55 -7 9 13 22 15 54 11 41 -5 52 -15 32 -28 -5 -3 -10 -19 -10 -35 0 -29
0 -29 -33 -15 -30 12 -37 12 -64 -5 l-30 -18 -12 39 c-14 46 -42 52 -60 13
-11 -25 -13 -25 -30 -10 -16 15 -19 15 -36 -4 -22 -24 -35 -26 -35 -5 0 24
-29 30 -45 9 -13 -18 -14 -17 -20 9 -6 22 -12 27 -26 24 -16 -4 -17 -2 -8 14
6 11 9 34 7 52 -2 25 -8 33 -27 35 -13 2 -28 -1 -34 -7 -9 -9 -16 -6 -28 11
-17 22 -18 22 -37 5 -18 -16 -20 -17 -26 -1 -4 11 -14 15 -31 12 -19 -4 -25
-1 -25 13 0 14 -7 19 -30 19 -19 0 -30 5 -30 14 0 24 16 27 85 15 50 -10 65
-16 65 -30 0 -15 8 -16 68 -12 77 6 91 14 71 41 -114 154 -131 169 -137 124
-3 -23 -5 -23 -22 -7 -11 10 -26 15 -34 12 -35 -14 -119 125 -102 168 8 23 50
15 54 -10 6 -33 16 -36 88 -25 94 15 152 42 160 74 8 32 36 34 83 5 31 -19 34
-19 52 -3 11 9 19 23 19 31 0 20 15 16 48 -12z m-188 -135 c0 -5 -4 -10 -10
-10 -5 0 -10 5 -10 10 0 6 5 10 10 10 6 0 10 -4 10 -10z m-235 -165 c39 -13
86 -25 106 -25 43 0 72 -24 39 -33 -12 -3 -20 0 -20 8 0 8 -21 15 -56 20 -72
9 -154 33 -154 45 0 14 7 13 85 -15z m-400 -334 c-8 -27 21 -41 84 -41 51 0
68 11 63 43 -4 21 21 23 38 2 33 -39 -40 -80 -132 -73 -61 4 -98 27 -98 59 0
17 13 27 38 28 9 1 11 -6 7 -18z m159 -108 c-4 -10 -10 -45 -13 -78 -6 -57 -7
-60 -35 -63 -55 -7 -73 4 -75 45 -8 107 -13 97 54 104 33 3 64 6 69 7 4 1 5
-6 0 -15z m105 -86 c34 -32 61 -63 61 -68 0 -19 40 -89 72 -124 27 -31 29 -38
17 -50 -8 -7 -26 -17 -40 -20 -23 -6 -36 2 -83 44 -33 30 -61 48 -70 45 -11
-4 -17 5 -21 33 -4 21 -9 47 -13 58 -3 11 -5 32 -5 48 1 15 2 43 2 63 1 20 5
34 10 32 5 -1 37 -29 70 -61z m-119 -109 c0 -5 -14 -8 -31 -8 -29 0 -31 -2
-24 -27 3 -16 6 -48 5 -73 -1 -55 20 -91 43 -72 11 9 17 10 22 2 4 -6 -7 -15
-24 -21 -32 -11 -41 -33 -18 -42 7 -3 5 -6 -5 -6 -9 -1 -21 -8 -26 -17 -8 -15
-11 -15 -28 2 -11 11 -18 27 -16 36 2 12 -5 19 -22 24 -14 3 -26 13 -26 21 0
13 3 13 15 3 30 -25 61 31 43 80 -6 16 -4 30 7 47 19 29 12 43 -21 43 -13 0
-24 3 -24 8 0 4 29 7 65 7 36 0 65 -3 65 -7z m1153 -22 c55 -17 174 -111 169
-135 -15 -71 -15 -70 16 -89 l31 -18 -30 -46 c-28 -42 -29 -50 -20 -85 6 -21
11 -49 11 -62 0 -21 -3 -23 -30 -17 -17 3 -41 1 -54 -5 -16 -8 -30 -8 -42 -1
-12 7 -25 6 -41 -1 -17 -7 -29 -7 -47 2 -18 10 -29 10 -45 2 -17 -9 -21 -9
-21 2 0 18 35 34 89 40 65 8 76 24 75 110 -2 86 -11 110 -63 180 -36 47 -70
137 -52 137 5 0 29 -6 54 -14z m-1472 -723 c-20 -116 -52 -173 -97 -173 -36 0
-90 32 -108 63 -36 64 -13 93 102 131 44 15 86 34 93 42 20 24 22 9 10 -63z
m2277 22 c104 -29 127 -58 101 -129 -13 -36 -73 -69 -116 -64 -38 4 -68 53
-82 135 -7 37 -14 79 -17 91 l-5 24 28 -20 c15 -11 56 -28 91 -37z"/>
</g>
</svg>
